<?xml version="1.0" encoding="UTF-8" standalone="no"?>
<!-- Created with Inkscape (http://www.inkscape.org/) -->

<svg
   xmlns:dc="http://purl.org/dc/elements/1.1/"
   xmlns:cc="http://creativecommons.org/ns#"
   xmlns:rdf="http://www.w3.org/1999/02/22-rdf-syntax-ns#"
   xmlns:svg="http://www.w3.org/2000/svg"
   xmlns="http://www.w3.org/2000/svg"
   version="1.1"
   width="637"
   height="349"
   viewBox="0 0 637 349"
   id="Layer_1"
   xml:space="preserve"><metadata
   id="metadata3132"><rdf:RDF><cc:Work
       rdf:about=""><dc:format>image/svg+xml</dc:format><dc:type
         rdf:resource="http://purl.org/dc/dcmitype/StillImage" /><dc:title></dc:title></cc:Work></rdf:RDF></metadata><defs
   id="defs3130" />
<path
   d="m 129.5,6.039 c 0,0 -83.5,151.5 -95,190 -11.5,38.5 -22,84.5 -22,102.5 0,18 10,36.5 26.5,36.5 16.5,0 38.5,-28.5 38.5,-60 0,-31.5 -40.25,-78.312 -70.75,-84.812 0,0 64.25,18.812 98.25,-10.188"
   id="path3120"
   style="fill:none;stroke:#000000;stroke-width:25;stroke-miterlimit:10" />
<path
   d="m 125,162.706 c 41.167,-35.833 47.5,-63.167 48.25,-65.417 0.75,-2.25 3.333,-3.5 6.25,-2.25 2.917,1.25 22.333,11.917 45.75,13 0,0 -3.218,18.346 -8.917,33 -9.333,24 -11.833,45.667 4.667,57.167 13.425,9.356 43.846,-1.983 57.048,-9.825 13.202,-7.842 22.452,-12.342 37.952,-28.092 15.5,-15.75 33.667,-39.083 27.5,-50 -6.167,-10.917 -21.667,-19.417 -38.75,-13.5 -17.083,5.917 -33.25,35.25 -30.75,59.75 2.5,24.5 21.75,41.25 36,45.5 14.25,4.25 39.75,0.25 61.5,-16.25 21.75,-16.5 50.75,-60.75 54.25,-75.25 3.5,-14.5 5.5,-18.417 6.875,-18.417 1.375,0 3.625,0 3.625,0 1.125,0 3.625,17.167 14.625,28.917 11,11.75 23.386,34.102 17.792,55 -5.666,21.167 -28.167,29.834 -48.667,26.167 -20.5,-3.667 -34.5,-30.667 -34.5,-30.667"
   id="path3122"
   style="fill:none;stroke:#000000;stroke-width:25;stroke-miterlimit:10" />
<path
   d="m 458.334,194.039 c 0,0 2.999,6.333 12.666,9 9.667,2.667 18.667,3 29.667,-8 4.044,-4.044 10.458,-16.5 21.889,-40.094 28.069,-59.406 77.611,-148.89 77.611,-148.89"
   id="path3124"
   style="fill:none;stroke:#000000;stroke-width:25;stroke-miterlimit:10" />
<path
   d="m 555.667,92.141 c 18.671,-1.915 36.233,10.17 41.858,27.26 6.652,20.21 -3.002,32.493 -3.912,52.796 -0.396,8.792 -0.688,17.2 4.363,24.868 7.781,11.805 21.274,13.799 33.522,7.976"
   id="path3126"
   style="fill:none;stroke:#000000;stroke-width:25;stroke-miterlimit:10" />
</svg>